<svg width="2475" height="2475" xmlns="http://www.w3.org/2000/svg" xmlns:xlink="http://www.w3.org/1999/xlink" xml:space="preserve" overflow="hidden"><defs><clipPath id="clip0"><rect x="1375" y="-63" width="2475" height="2475"/></clipPath></defs><g clip-path="url(#clip0)" transform="translate(-1375 63)"><path d="M1375.64 31.6554C1375.64-20.0883 1417.6-62.0349 1469.34-62.0349L3755.95-62.0349C3807.69-62.0349 3849.65-20.0883 3849.65 31.6554L3849.65 2318.27C3849.65 2370.01 3807.69 2411.97 3755.95 2411.97L1469.34 2411.97C1417.6 2411.97 1375.64 2370.01 1375.64 2318.27Z" fill="#AEDD81" fill-rule="evenodd" fill-opacity="0.501961"/><path d="M1562.79 1140.78 1562.79 199.988C1562.79 173.366 1584.37 151.782 1610.99 151.782L2582.79 151.782 2582.79 1140.78Z" fill="#FF0000" fill-rule="evenodd"/><path d="M2644.79 151.782 3609.4 151.782C3636.65 151.782 3658.79 173.366 3658.79 199.988L3658.79 1140.78 2644.79 1140.78Z" fill="#FF0000" fill-rule="evenodd"/><path d="M2582.79 2186.78 1611.31 2186.78C1584.5 2186.78 1562.79 2165.08 1562.79 2138.28L1562.79 1191.78 2582.79 1191.78Z" fill="#FF0000" fill-rule="evenodd"/><path d="M3658.79 1202.78 3658.79 2149.28C3658.79 2176.08 3637.08 2197.78 3610.27 2197.78L2644.79 2197.78 2644.79 1202.78Z" fill="#FF0000" fill-rule="evenodd"/><path d="M1898.79 232.782 1954.91 232.782 2176.14 830.444 2176.14 232.782 2246.8 232.782 2246.8 1059.78 2195.03 1059.78 1969.45 451.552 1969.45 1059.78 1898.79 1059.78Z" fill="#FFFF00" fill-rule="evenodd"/><path d="M2986.79 232.782 3322.79 232.782 3322.79 297.78 3192.69 297.78 3192.69 1059.78 3117.96 1059.78 3117.96 297.78 2986.79 297.78Z" fill="#FFFF00" fill-rule="evenodd"/><path d="M1935.79 1289.78 2206.62 1289.78 2206.62 1354.31 2009.89 1354.31 2009.89 1660.68 2188.99 1660.68 2188.99 1726.25 2009.89 1726.25 2009.89 2046.29 2209.79 2046.29 2209.79 2110.78 1935.79 2110.78Z" fill="#FFFF00" fill-rule="evenodd"/><path d="M279.861 1.8623 63.8964 1.8623C46.3903 1.8623 31.9212 7.28318 20.4915 18.1249 9.05718 28.9667 3.34229 42.9541 3.34229 60.0918L3.34229 251.05 78.3654 251.05 78.3654 66.3878 264.856 66.3878 264.856 758.341 78.3654 758.341 78.3654 556.367 3.34229 556.367 3.34229 764.635C3.34229 781.77 9.05718 795.758 20.4915 806.6 31.9212 817.446 46.3903 822.864 63.8964 822.864L279.861 822.864C297.367 822.864 311.657 817.446 322.732 806.6 333.807 795.758 339.345 781.77 339.345 764.635L339.345 60.0918C339.345 42.9541 333.807 28.9667 322.732 18.1249 311.657 7.28318 297.367 1.8623 279.861 1.8623Z" fill="#FFFF00" fill-rule="evenodd" transform="matrix(-1 1.22465e-16 1.22465e-16 1 3325 1290)"/></g></svg>