<svg width="2475" height="2475" xmlns="http://www.w3.org/2000/svg" xmlns:xlink="http://www.w3.org/1999/xlink" xml:space="preserve" overflow="hidden"><defs><clipPath id="clip0"><rect x="962" y="1" width="2475" height="2475"/></clipPath></defs><g clip-path="url(#clip0)" transform="translate(-962 -1)"><path d="M962.504 94.7128C962.504 42.9692 1004.46 1.02277 1056.2 1.02277L3342.8 1.02277C3394.54 1.02277 3436.5 42.9692 3436.5 94.7128L3436.5 2381.32C3436.5 2433.06 3394.54 2475.02 3342.8 2475.02L1056.2 2475.02C1004.46 2475.02 962.504 2433.06 962.504 2381.32Z" fill="#AEDD81" fill-rule="evenodd" fill-opacity="0.501961"/><path d="M1149.5 1204.02 1149.5 263.229C1149.5 236.607 1171.08 215.023 1197.7 215.023L2169.5 215.023 2169.5 1204.02Z" fill="#FF0000" fill-rule="evenodd"/><path d="M2231.5 215.023 3196.11 215.023C3223.36 215.023 3245.5 236.607 3245.5 263.229L3245.5 1204.02 2231.5 1204.02Z" fill="#FF0000" fill-rule="evenodd"/><path d="M2169.5 2250.02 1198.02 2250.02C1171.21 2250.02 1149.5 2228.32 1149.5 2201.52L1149.5 1255.02 2169.5 1255.02Z" fill="#FF0000" fill-rule="evenodd"/><path d="M3245.5 1266.02 3245.5 2212.52C3245.5 2239.32 3223.79 2261.02 3196.98 2261.02L2231.5 2261.02 2231.5 1266.02Z" fill="#FF0000" fill-rule="evenodd"/><path d="M1486 296.523 1542.12 296.523 1763.35 894.186 1763.35 296.523 1834 296.523 1834 1123.52 1782.24 1123.52 1556.66 515.293 1556.66 1123.52 1486 1123.52Z" fill="#FFFF00" fill-rule="evenodd"/><path d="M1458.5 269.023 1561.27 269.023 1735.85 740.671 1735.85 269.023 1861.5 269.023 1861.5 1151.02 1763.1 1151.02 1584.16 668.529 1584.16 1151.02 1458.5 1151.02ZM1476.84 1132.69 1565.83 1132.69 1565.83 566.372 1775.86 1132.69 1843.17 1132.69 1843.17 287.356 1754.18 287.356 1754.18 843.014 1548.5 287.356 1476.84 287.356ZM1495.17 305.69 1535.74 305.69 1772.51 945.358 1772.51 305.69 1824.84 305.69 1824.84 1114.36 1788.61 1114.36 1547.49 464.215 1547.49 1114.36 1495.17 1114.36ZM1513.5 1096.02 1529.16 1096.02 1529.16 362.058 1801.37 1096.02 1806.5 1096.02 1806.5 324.023 1790.85 324.023 1790.85 1047.7 1522.98 324.023 1513.5 324.023Z" fill="#FFFF00"/><path d="M2574 296.523 2910 296.523 2910 361.521 2779.9 361.521 2779.9 1123.52 2705.17 1123.52 2705.17 361.521 2574 361.521Z" fill="#FFFF00" fill-rule="evenodd"/><path d="M2546.5 269.023 2937.5 269.023 2937.5 389.021 2807.4 389.021 2807.4 1151.02 2677.67 1151.02 2677.67 389.021 2546.5 389.021ZM2564.84 370.688 2696.01 370.688 2696.01 1132.69 2789.07 1132.69 2789.07 370.688 2919.17 370.688 2919.17 287.356 2564.84 287.356ZM2583.17 305.69 2900.84 305.69 2900.84 352.355 2770.74 352.355 2770.74 1114.36 2714.34 1114.36 2714.34 352.355 2583.17 352.355ZM2601.5 334.021 2732.67 334.021 2732.67 1096.02 2752.4 1096.02 2752.4 334.021 2882.5 334.021 2882.5 324.023 2601.5 324.023Z" fill="#FFFF00"/><path d="M1523 1353.52 1793.83 1353.52 1793.83 1418.05 1597.1 1418.05 1597.1 1724.42 1776.2 1724.42 1776.2 1789.99 1597.1 1789.99 1597.1 2110.03 1797 2110.03 1797 2174.52 1523 2174.52Z" fill="#FFFF00" fill-rule="evenodd"/><path d="M1495.5 1326.02 1821.33 1326.02 1821.33 1445.55 1624.6 1445.55 1624.6 1696.92 1803.7 1696.92 1803.7 1817.49 1624.6 1817.49 1624.6 2082.53 1824.5 2082.53 1824.5 2202.02 1495.5 2202.02ZM1513.84 2183.69 1806.17 2183.69 1806.17 2100.87 1606.27 2100.87 1606.27 1799.16 1785.37 1799.16 1785.37 1715.26 1606.27 1715.26 1606.27 1427.22 1803 1427.22 1803 1344.36 1513.84 1344.36ZM1532.17 1362.69 1784.67 1362.69 1784.67 1408.89 1587.94 1408.89 1587.94 1733.59 1767.04 1733.59 1767.04 1780.83 1587.94 1780.83 1587.94 2119.2 1787.84 2119.2 1787.84 2165.36 1532.17 2165.36ZM1550.5 2147.02 1769.5 2147.02 1769.5 2137.53 1569.6 2137.53 1569.6 1762.49 1748.7 1762.49 1748.7 1751.92 1569.6 1751.92 1569.6 1390.55 1766.33 1390.55 1766.33 1381.02 1550.5 1381.02Z" fill="#FFFF00"/><path d="M277.097 0.488287 61.1336 0.488287C43.6276 0.488287 29.1588 5.90924 17.7291 16.7508 6.295 27.5927 0.57995 41.5801 0.57995 58.7178L0.57995 249.676 75.6028 249.676 75.6028 65.0136 262.092 65.0136 262.092 756.966 75.6028 756.966 75.6028 554.992 0.57995 554.992 0.57995 763.26C0.57995 780.395 6.295 794.383 17.7291 805.225 29.1588 816.07 43.6276 821.489 61.1336 821.489L277.097 821.489C294.603 821.489 308.892 816.07 319.967 805.225 331.042 794.383 336.58 780.395 336.58 763.26L336.58 58.7178C336.58 41.5801 331.042 27.5927 319.967 16.7508 308.892 5.90924 294.603 0.488287 277.097 0.488287Z" fill="#FFFF00" fill-rule="evenodd" transform="matrix(-1 1.22465e-16 1.22465e-16 1 2909.5 1355.5)"/><path d="M276.541 27.9883 61.722 28 56.9586 28.185 53.3053 28.6323 49.8873 29.3959 46.8288 30.3581 44.0151 31.5829 41.4827 32.9757 39.1211 34.6446 36.7765 36.6589 34.6626 38.905 32.9123 41.1554 31.5316 43.4174 30.3495 45.9027 29.4589 48.4558 28.7685 51.4475 28.301 54.9001 28.125 59.2998 28.125 222.188 48.125 222.188 48.125 37.5625 289.625 37.5625 289.625 784.5 48.125 784.5 48.125 582.5 28.125 582.5 28.125 762.763 28.301 767.162 28.7685 770.615 29.4589 773.607 30.3495 776.16 31.5316 778.645 32.9122 780.907 34.6 783.077 36.6992 785.275 39.1211 787.355 41.5903 789.1 44.0164 790.465 46.8274 791.656 49.891 792.654 53.1663 793.351 56.9587 793.815 61.7213 794 276.591 794 281.337 793.816 285.037 793.358 288.268 792.663 291.247 791.692 293.874 790.553 296.196 789.231 298.462 787.585 300.753 785.56 302.727 783.427 304.383 781.218 305.708 779.001 306.872 776.421 307.806 773.743 308.462 770.758 308.949 767.162 309.125 762.763 309.125 59.2997 308.949 54.9001 308.462 51.3047 307.806 48.3196 306.872 45.6415 305.708 43.0613 304.383 40.844 302.666 38.5543 300.676 36.3724 298.462 34.4152 296.303 32.8474 293.874 31.4947 291.243 30.3218 288.27 29.3864 284.897 28.6247 281.314 28.1815ZM282.813 9.89384 288.049 10.5416 293.048 11.6705 297.748 13.1489 302.083 15.0816 306.184 17.3658 309.946 20.0967 313.559 23.2908 316.805 26.8514 319.628 30.6147 321.986 34.5621 323.916 38.8388 325.477 43.3149 326.529 48.1016 327.233 53.3 327.458 58.9332 327.458 763.129 327.233 768.763 326.529 773.961 325.477 778.748 323.916 783.224 321.986 787.5 319.628 791.448 316.826 795.184 313.584 798.687 309.946 801.903 306.149 804.66 302.083 806.976 297.749 808.856 293.048 810.388 288.096 811.453 282.821 812.105 276.947 812.333 61.3654 812.333 55.4862 812.105 50.1388 811.45 45.1303 810.385 40.4008 808.844 35.9221 806.947 31.7801 804.617 27.832 801.827 24.0664 798.591 20.7 795.067 17.8041 791.344 15.3855 787.382 13.3665 783.137 11.8196 778.702 10.7145 773.913 10.017 768.763 9.79167 763.129 9.79167 564.167 66.4583 564.167 66.4583 766.167 271.292 766.167 271.292 55.8958 66.4583 55.8958 66.4583 240.521 9.79167 240.521 9.79167 58.9333 10.017 53.3 10.7145 48.1492 11.8196 43.3603 13.3665 38.9259 15.3855 34.6808 17.8041 30.7185 20.7209 26.9683 24.0922 23.3863 27.832 20.1732 31.7442 17.4086 35.9217 15.111 40.4013 13.161 45.1291 11.6736 50.1851 10.5441 55.4862 9.89499 61.3657 9.66666 276.912 9.65496ZM277.282-8.67839 61.0093-8.66666 54.0138-8.39499 47.0649-7.5441 40.3709-6.04864 33.9737-4.03604 27.8283-1.36097 22.0058 1.84142 16.543 5.70181 11.4078 10.1137 6.77914 15.0317 2.69591 20.2815-0.76052 25.9442-3.61651 31.9491-5.81964 38.2647-7.33951 44.8508-8.267 51.7-8.54167 58.5667-8.54167 258.854 84.7917 258.854 84.7917 74.2292 252.958 74.2292 252.958 747.833 84.7917 747.833 84.7917 545.833-8.54167 545.833-8.54167 763.496-8.267 770.362-7.33951 777.212-5.81963 783.798-3.6165 790.113-0.760524 796.118 2.69592 801.781 6.80001 807.058 11.4336 811.908 16.543 816.298 21.9699 820.133 27.8279 823.428 33.9742 826.031 40.3697 828.115 47.1112 829.55 54.0138 830.395 61.0096 830.667 277.303 830.667 284.304 830.395 291.154 829.547 297.827 828.112 304.251 826.019 310.292 823.399 316.101 820.09 321.429 816.222 326.416 811.813 330.924 806.941 334.872 801.677 338.264 796 340.959 790.026 343.148 783.752 344.596 777.164 345.517 770.362 345.792 763.496 345.792 58.5667 345.517 51.7 344.596 44.8984 343.148 38.3101 340.959 32.0362 338.264 26.0629 334.872 20.3853 330.945 15.1486 326.441 10.2092 321.429 5.77827 316.066 1.88419 310.292-1.33156 304.252-4.02392 297.827-6.04548 291.201-7.54156 284.312-8.39384ZM285.811-26.6815 294.353-25.6247 302.605-23.7614 310.757-21.1968 318.501-17.7447 325.947-13.5974 332.913-8.54019 339.324-2.87239 345.084 3.44568 350.117 10.156 354.542 17.5637 358.003 25.2335 360.819 33.3054 362.663 41.6953 363.801 50.0999 364.125 58.2003 364.125 763.862 363.801 771.963 362.663 780.367 360.819 788.757 358.003 796.829 354.542 804.499 350.117 811.907 345.023 818.698 339.247 824.94 332.913 830.54 326.054 835.519 318.501 839.822 310.753 843.183 302.607 845.837 294.213 847.642 285.788 848.684 277.659 849 60.6537 849 52.5413 848.685 44.0837 847.649 35.609 845.846 27.5476 843.219 19.7336 839.91 12.1597 835.65 5.25388 830.769-1.19916 825.225-7.09996 819.048-12.4122 812.218-16.9066 804.855-20.5995 797.09-23.4589 788.893-25.3935 780.51-26.551 771.963-26.875 763.862-26.875 527.5 103.125 527.5 103.125 729.5 234.625 729.5 234.625 92.5625 103.125 92.5625 103.125 277.188-26.875 277.188-26.875 58.2002-26.551 50.0999-25.3935 41.5525-23.4589 33.1692-20.5995 24.9723-16.9066 17.2076-12.4123 9.84459-7.16257 3.09497-1.27652-3.15894 5.2539-8.76957 12.2673-13.7257 19.7349-17.8329 27.5462-21.2331 35.6127-23.7709 43.9447-25.6323 52.5414-26.685 60.653-27 277.652-27.0117Z" fill="#FFFF00" transform="matrix(-1 1.22465e-16 1.22465e-16 1 2909.5 1355.5)"/></g></svg>