<svg width="2474" height="2474" xmlns="http://www.w3.org/2000/svg" xmlns:xlink="http://www.w3.org/1999/xlink" xml:space="preserve" overflow="hidden"><defs><clipPath id="clip0"><rect x="984" y="97" width="2474" height="2474"/></clipPath></defs><g clip-path="url(#clip0)" transform="translate(-984 -97)"><path d="M984.438 191.485C984.438 139.762 1026.38 97.8325 1078.1 97.8325L3363.78 97.8325C3415.5 97.8325 3457.44 139.762 3457.44 191.485L3457.44 2477.17C3457.44 2528.89 3415.5 2570.83 3363.78 2570.83L1078.1 2570.83C1026.38 2570.83 984.438 2528.89 984.438 2477.17Z" fill="#AEDD81" fill-rule="evenodd" fill-opacity="0.501961"/><path d="M1578.44 633.052C1578.44 514.02 1674.2 417.531 1792.25 417.531L2647.63 417.531C2765.68 417.531 2861.44 514.02 2861.44 633.052L2861.44 2035.01C2861.44 2154.04 2765.68 2250.53 2647.63 2250.53L1792.25 2250.53C1674.2 2250.53 1578.44 2154.04 1578.44 2035.01Z" stroke="#000000" stroke-width="13.75" stroke-miterlimit="8" fill="none" fill-rule="evenodd"/><path d="M1860.35 904.904 2161.35 904.904" stroke="#000000" stroke-width="13.75" stroke-miterlimit="8" fill="none" fill-rule="evenodd"/><path d="M1860.35 1104.97 2161.35 1104.97" stroke="#000000" stroke-width="13.75" stroke-miterlimit="8" fill="none" fill-rule="evenodd"/><path d="M1859.44 1300.51 2579.44 1300.51" stroke="#000000" stroke-width="13.75" stroke-miterlimit="8" fill="none" fill-rule="evenodd"/><path d="M1859.44 1500.51 2579.44 1500.51" stroke="#000000" stroke-width="13.75" stroke-miterlimit="8" fill="none" fill-rule="evenodd"/><path d="M1859.44 1694.58 2579.44 1694.58" stroke="#000000" stroke-width="13.75" stroke-miterlimit="8" fill="none" fill-rule="evenodd"/><path d="M1859.44 1894.58 2579.44 1894.58" stroke="#000000" stroke-width="13.75" stroke-miterlimit="8" fill="none" fill-rule="evenodd"/><path d="M1860.35 711.974 2161.35 711.974" stroke="#000000" stroke-width="13.75" stroke-miterlimit="8" fill="none" fill-rule="evenodd"/><path d="M2244 903 2244 751.75C2244 747.47 2247.47 744 2251.75 744L2408 744 2408 903Z" fill="#FF3200" fill-rule="evenodd" fill-opacity="0.698039"/><path d="M2298 757 2307.03 757 2342.63 853.117 2342.63 757 2354 757 2354 890 2345.67 890 2309.37 792.183 2309.37 890 2298 890Z" fill="#FFFF00" fill-rule="evenodd"/><path d="M2418 744 2573.06 744C2577.44 744 2581 747.47 2581 751.75L2581 903 2418 903Z" fill="#FF3200" fill-rule="evenodd" fill-opacity="0.698039"/><path d="M2473 757 2527 757 2527 767.453 2506.09 767.453 2506.09 890 2494.08 890 2494.08 767.453 2473 767.453Z" fill="#FFFF00" fill-rule="evenodd"/><path d="M2408 1073 2251.8 1073C2247.49 1073 2244 1069.51 2244 1065.2L2244 913 2408 913Z" fill="#FF3200" fill-rule="evenodd" fill-opacity="0.698039"/><path d="M2304 927 2347.49 927 2347.49 937.374 2315.9 937.374 2315.9 986.632 2344.66 986.632 2344.66 997.175 2315.9 997.175 2315.9 1048.63 2348 1048.63 2348 1059 2304 1059Z" fill="#FFFF00" fill-rule="evenodd"/><path d="M2581 913 2581 1065.2C2581 1069.51 2577.51 1073 2573.2 1073L2418 1073 2418 913Z" fill="#FF3200" fill-rule="evenodd" fill-opacity="0.698039"/><path d="M44.4402 0 9.73183 0C6.91837 0 4.59309 0.871433 2.75598 2.61461 0.918555 4.35779 0 6.60688 0 9.36219L0 40.064 12.0574 40.064 12.0574 10.3743 42.0287 10.3743 42.0287 121.626 12.0574 121.626 12.0574 89.1528 0 89.1528 0 122.638C0 125.393 0.918555 127.642 2.75598 129.385 4.59309 131.129 6.91837 132 9.73183 132L44.4402 132C47.2537 132 49.5502 131.129 51.3302 129.385 53.1101 127.642 54 125.393 54 122.638L54 9.36219C54 6.60688 53.1101 4.35779 51.3302 2.61461 49.5502 0.871433 47.2537 0 44.4402 0Z" fill="#FFFF00" fill-rule="evenodd" transform="matrix(-1 0 0 1 2527 927)"/></g></svg>