<svg width="1205" height="1207" xmlns="http://www.w3.org/2000/svg" xmlns:xlink="http://www.w3.org/1999/xlink" xml:space="preserve" overflow="hidden"><defs><clipPath id="clip0"><rect x="1440" y="579" width="1205" height="1207"/></clipPath></defs><g clip-path="url(#clip0)" transform="translate(-1440 -579)"><path d="M1568.13 1706.02C1557.59 1716.56 1544.04 1719.57 1530.49 1713.55 1516.94 1707.52 1509.41 1695.47 1509.41 1681.92 1509.41 1668.36 1518.44 1654.8 1530.49 1650.28 1544.04 1644.26 1557.59 1647.27 1568.13 1657.82 1581.68 1669.87 1581.68 1692.46 1568.13 1706.02ZM2631.06 713.404 2509.11 835.41 2412.75 809.804 2388.66 714.911 2510.61 592.905C2438.35 565.793 2357.04 582.362 2299.83 633.574 2242.62 686.292 2220.04 764.616 2239.61 839.928L1471.77 1608.11C1444.67 1633.72 1434.13 1672.88 1443.16 1709.03 1452.2 1745.18 1480.8 1773.8 1516.94 1782.83 1553.07 1791.87 1590.71 1781.33 1617.81 1754.22L2385.65 986.034C2460.93 1005.61 2539.22 983.021 2591.91 925.784 2643.1 868.547 2659.66 785.704 2631.06 713.404Z" fill-rule="evenodd"/><path d="M2625.23 1607.85 2236.64 1219 2080 1375.74 2456.54 1752.53 2470.09 1766.1 2471.6 1764.59C2515.28 1796.24 2575.53 1790.21 2613.18 1752.53 2650.83 1713.35 2655.35 1653.06 2625.23 1607.85L2625.23 1607.85Z" fill-rule="evenodd"/><path d="M1660.08 756.875 1661.59 755.368 1622.4 683.012 1492.76 579 1440 631.76 1544.01 761.398 1616.37 800.59 1617.88 799.083 1905.79 1087 1948 1044.79Z" fill-rule="evenodd"/><path d="M2207.49 1343.71 2254.75 1296.45C2256.09 1295.11 2258.25 1295.11 2259.59 1296.45L2308.41 1345.27 2258.73 1394.95Z" fill="#FF0000" fill-rule="evenodd"/><path d="M2311.53 1348.38 2359.98 1396.84C2361.35 1398.21 2361.38 1400.4 2360.04 1401.74L2312.78 1449 2261.84 1398.06Z" fill="#FF0000" fill-rule="evenodd"/><path d="M2206.18 1447.5 2157.38 1398.69C2156.03 1397.35 2156.03 1395.16 2157.38 1393.82L2204.93 1346.27 2256.17 1397.51Z" fill="#FF0000" fill-rule="evenodd"/><path d="M2309.67 1452.12 2262.12 1499.67C2260.77 1501.01 2258.59 1501.01 2257.25 1499.66L2208.74 1451.16 2258.73 1401.18Z" fill="#FF0000" fill-rule="evenodd"/></g></svg>