<svg width="1230" height="1232" xmlns="http://www.w3.org/2000/svg" xmlns:xlink="http://www.w3.org/1999/xlink" xml:space="preserve" overflow="hidden"><defs><clipPath id="clip0"><rect x="1426" y="565" width="1230" height="1232"/></clipPath></defs><g clip-path="url(#clip0)" transform="translate(-1426 -565)"><path d="M1568.63 1706.52C1558.09 1717.06 1544.54 1720.07 1530.99 1714.05 1517.44 1708.02 1509.91 1695.97 1509.91 1682.42 1509.91 1668.86 1518.94 1655.3 1530.99 1650.78 1544.54 1644.76 1558.09 1647.77 1568.63 1658.32 1582.18 1670.37 1582.18 1692.96 1568.63 1706.52ZM2631.56 713.904 2509.61 835.91 2413.25 810.304 2389.16 715.411 2511.11 593.405C2438.85 566.293 2357.54 582.862 2300.33 634.074 2243.12 686.792 2220.54 765.117 2240.11 840.428L1472.27 1608.61C1445.17 1634.22 1434.63 1673.38 1443.67 1709.53 1452.7 1745.68 1481.3 1774.3 1517.44 1783.33 1553.57 1792.37 1591.21 1781.83 1618.31 1754.72L2386.15 986.534C2461.43 1006.11 2539.72 983.521 2592.41 926.284 2643.6 869.047 2660.16 786.204 2631.56 713.904Z" stroke="#FFFFFF" stroke-width="20.625" stroke-miterlimit="8" fill-rule="evenodd"/><path d="M2625.73 1608.35 2237.14 1219.5 2080.5 1376.24 2457.04 1753.03 2470.59 1766.6 2472.1 1765.09C2515.78 1796.74 2576.03 1790.71 2613.68 1753.03 2651.33 1713.85 2655.85 1653.56 2625.73 1608.35L2625.73 1608.35Z" stroke="#FFFFFF" stroke-width="20.625" stroke-miterlimit="8" fill-rule="evenodd"/><path d="M1660.58 757.376 1662.09 755.868 1622.9 683.512 1493.26 579.5 1440.5 632.26 1544.51 761.898 1616.87 801.091 1618.38 799.583 1906.29 1087.5 1948.5 1045.29Z" stroke="#FFFFFF" stroke-width="20.625" stroke-miterlimit="8" fill-rule="evenodd"/><path d="M2207.49 1343.71 2254.75 1296.45C2256.09 1295.11 2258.25 1295.11 2259.59 1296.45L2308.41 1345.27 2258.73 1394.95Z" fill="#FF0000" fill-rule="evenodd"/><path d="M2311.53 1348.38 2359.98 1396.84C2361.35 1398.21 2361.38 1400.4 2360.04 1401.74L2312.78 1449 2261.84 1398.06Z" fill="#FF0000" fill-rule="evenodd"/><path d="M2206.18 1447.5 2157.38 1398.69C2156.03 1397.35 2156.03 1395.16 2157.38 1393.82L2204.93 1346.27 2256.17 1397.51Z" fill="#FF0000" fill-rule="evenodd"/><path d="M2309.67 1452.12 2262.12 1499.67C2260.77 1501.01 2258.59 1501.01 2257.25 1499.66L2208.74 1451.16 2258.73 1401.18Z" fill="#FF0000" fill-rule="evenodd"/></g></svg>